Coordinates
version=1
nRows=19
nColumns=36
inDegrees=yes

Units are S.I. units (second, meters, Newtons, ...)
If the header above contains a line with 'inDegrees', this indicates whether rotational values are in degrees (yes) or radians (no).

endheader
time	pelvis_tilt	pelvis_list	pelvis_rotation	pelvis_tx	pelvis_ty	pelvis_tz	hip_flexion_r	hip_adduction_r	hip_rotation_r	knee_angle_r	knee_angle_r_beta	ankle_angle_r	subtalar_angle_r	mtp_angle_r	hip_flexion_l	hip_adduction_l	hip_rotation_l	knee_angle_l	knee_angle_l_beta	ankle_angle_l	subtalar_angle_l	mtp_angle_l	lumbar_extension	lumbar_bending	lumbar_rotation	arm_flex_r	arm_add_r	arm_rot_r	elbow_flex_r	pro_sup_r	arm_flex_l	arm_add_l	arm_rot_l	elbow_flex_l	pro_sup_l
      3.88135590	     -7.26117858	     -0.36661572	      3.14627125	      0.34343831	      0.95110781	     -0.05374541	      2.77371747	     -5.90755251	     -8.65218286	      1.47994841	      0.02582997	      3.04802030	     -4.62017415	     -7.49999987	      5.80945574	     -3.77590797	     -3.52173691	      1.80270645	      0.03146316	      3.32291423	      1.44139674	     -7.49999987	      5.14754222	     -3.50725763	      0.41729089	    173.63861581	    -13.54966978	     70.35861643	     14.52618425	     61.50975752	     73.64229994	     11.22887525	    -37.75938286	     15.93705885	     79.03056486
      3.89830510	     -7.24382818	     -0.39740616	      3.06684789	      0.34363300	      0.95127181	     -0.05374101	      2.75936229	     -5.90052071	     -8.63197150	      1.55295541	      0.02710418	      3.00240703	     -4.73879583	     -7.49999987	      5.80697657	     -3.80793713	     -3.52339823	      1.85762596	      0.03242169	      3.33951277	      1.38648089	     -7.49999987	      5.20297259	     -3.46673209	      0.40481050	    173.30256333	    -13.58986611	     68.71405718	     14.46620667	     61.37914570	     73.57673573	     11.15637345	    -38.02274255	     16.12103273	     74.71316400
      3.91525420	     -7.16040951	     -0.38725884	      3.08717758	      0.34750090	      0.94848753	     -0.05819112	      2.62456420	     -6.04266346	     -8.88093229	      1.70732215	      0.02979839	      2.92481850	     -4.90061052	     -7.49999987	      5.69949020	     -3.72801155	     -3.51127536	      1.90977959	      0.03333194	      3.44280226	      1.32853808	     -7.49999987	      5.29962960	     -3.20301930	      0.60485419	    173.19700566	    -13.61201153	     68.84017457	     14.66806564	     61.42096642	     73.40446377	     11.39986212	    -37.91876073	     16.11894300	     74.83432049
      3.93220340	     -7.26722530	     -0.41776090	      2.94332885	      0.34384190	      0.94870447	     -0.05333287	      2.80927241	     -6.02822891	     -8.65431715	      1.78199326	      0.03110165	      2.90827102	     -5.24926808	     -7.49999987	      5.79591421	     -3.75842489	     -3.35082734	      1.94277124	      0.03390775	      3.53733064	      0.93563968	     -7.49999987	      5.26610393	     -3.19977237	      1.12741248	    173.80868301	    -14.20095306	     71.35539949	     15.77263499	     62.30721497	     73.58495153	     11.28840481	    -35.32953502	     15.62853776	     80.26981943
      3.94915250	     -7.24488500	     -0.42586538	      2.92221992	      0.35198557	      0.94895417	     -0.05366717	      2.66873208	     -6.02835145	     -8.68299048	      1.83193494	      0.03197330	      2.87783477	     -5.25564438	     -7.49999987	      5.66844337	     -3.79604740	     -3.29935882	      1.99378186	      0.03479806	      3.55028384	      0.93325329	     -7.49999987	      5.45025441	     -3.13383561	      1.25807038	    173.89439020	    -14.21384513	     71.33751475	     15.82739637	     62.29619775	     73.38935354	     11.24053716	    -35.36371369	     15.60833125	     80.28197285
      3.96610170	     -7.31944173	     -0.45682646	      2.78190182	      0.35220308	      0.94906942	     -0.05358563	      2.66285374	     -5.99001749	     -8.64329680	      1.85744117	      0.03241846	      2.94618733	     -5.17179270	     -7.49999987	      5.59750368	     -3.85056531	     -3.32186724	      1.98315656	      0.03461261	      3.65171055	      0.61857276	     -7.49999987	      5.73496214	     -3.03501327	      1.33797867	    173.35907333	    -14.12045172	     69.41392849	     16.73328923	     61.84263521	     73.05237323	     11.27209560	    -36.59610677	     16.52211731	     77.24706431
      3.98305090	     -7.37651752	     -0.44847085	      2.74692753	      0.35196794	      0.95204181	     -0.05378624	      2.53894783	     -5.97322328	     -8.72372280	      1.67470479	      0.02922911	      3.01019759	     -4.89678205	     -7.49999987	      5.55560336	     -3.86155328	     -3.26451540	      1.96120009	      0.03422940	      3.62317059	      0.43501519	     -7.49999987	      5.97737014	     -2.95151092	      1.25676680	    172.78966081	    -13.95135082	     67.53258247	     17.27873618	     61.99263248	     72.60936578	     11.31566261	    -37.59109206	     16.90130065	     75.82577476
      4.00000000	     -7.43855596	     -0.43877486	      2.68692152	      0.35205567	      0.95188039	     -0.05377091	      2.47376551	     -5.96577918	     -8.66942626	      1.62196826	      0.02830869	      2.93425552	     -4.98268788	     -7.49999987	      5.49612321	     -3.85660222	     -3.23893909	      1.91117540	      0.03335630	      3.58949757	      0.33612946	     -7.49999987	      6.11994701	     -2.92610388	      1.31752018	    172.83580995	    -13.94309444	     69.07397099	     17.39308165	     63.06044621	     72.30797443	     11.60213489	    -40.79998514	     17.52437451	     86.01032592
      4.01694920	     -7.47423293	     -0.42131588	      2.62163375	      0.35185257	      0.95166106	     -0.05358977	      2.42815480	     -5.95556327	     -8.65504328	      1.52836250	      0.02667496	      2.95241404	     -4.90812616	     -7.49999987	      5.45165581	     -3.82938787	     -3.18124831	      1.89626775	      0.03309612	      3.59142455	      0.13942861	     -7.49999987	      6.23262458	     -2.85731182	      1.32411517	    172.52194196	    -13.89329457	     68.10619159	     17.80637567	     63.43801438	     72.21387883	     11.42571390	    -39.84549505	     17.23650251	     83.67106900
      4.03389830	     -7.52499569	     -0.37784697	      2.62496641	      0.35202250	      0.95156388	     -0.05352848	      2.41061593	     -5.99646894	     -8.83350851	      1.44425453	      0.02520700	      2.92198810	     -4.75523186	     -7.49999987	      5.43426314	     -3.77510663	     -3.10824130	      1.83981567	      0.03211084	      3.48153814	      0.06454513	     -7.49999987	      6.29991291	     -2.87198156	      1.33574994	    172.53372440	    -13.70101415	     68.30265773	     17.52897455	     64.30036868	     72.25364007	     11.16115134	    -38.55800126	     17.25472741	     82.44822474
      4.05084750	     -7.55671251	     -0.36821516	      2.58967629	      0.35177494	      0.95146467	     -0.05339625	      2.41326750	     -6.00369913	     -8.91597931	      1.40016772	      0.02443754	      2.80588718	     -4.70706511	     -7.49999987	      5.42169394	     -3.75520812	     -3.06044363	      1.80058695	      0.03142617	      3.46098071	      0.01379432	     -7.49999987	      6.34984125	     -2.85526574	      1.41025002	    172.49980898	    -13.63684756	     68.22055193	     17.48197219	     64.38413086	     72.24597404	     11.19009442	    -38.21250884	     17.24642390	     82.48609993
      4.06779660	     -7.59933288	     -0.36975565	      2.62266720	      0.35202033	      0.95142259	     -0.05338661	      2.48066181	     -5.92816370	     -8.86310049	      1.31012872	      0.02286606	      2.91928578	     -4.41995402	     -7.49999987	      5.43489488	     -3.73837111	     -2.83233781	      1.75092196	      0.03055935	      3.38873358	     -0.22890769	     -7.49999987	      6.38346604	     -2.81977065	      1.36919850	    172.36464461	    -13.60015712	     68.59222705	     17.20643493	     64.80815884	     72.41168257	     11.04745564	    -37.99367919	     17.37070808	     82.15991194
      4.08474580	     -7.62087748	     -0.36893377	      2.63198764	      0.35175838	      0.95134454	     -0.05329603	      2.53179416	     -5.85915319	     -8.63413533	      1.23136807	      0.02149143	      2.93666925	     -4.34295921	     -7.49999987	      5.43073801	     -3.73975759	     -2.82157225	      1.70620560	      0.02977891	      3.41220724	     -0.05072509	     -7.49999987	      6.40464772	     -2.79004763	      1.35065104	    172.33136877	    -13.55648952	     69.16694306	     16.93860371	     64.78385007	     72.49558279	     10.80911229	    -36.76652127	     17.19116877	     79.95704009
      4.10169490	     -7.66031263	     -0.38497506	      2.71198333	      0.35198976	      0.95131102	     -0.05332031	      2.59580822	     -5.81128964	     -8.80941954	      1.19352159	      0.02083088	      3.14088921	     -3.79783098	     -7.49999987	      5.47494527	     -3.74468616	     -2.69595424	      1.67689129	      0.02926727	      3.38114467	     -0.07879067	     -7.49999987	      6.49644115	     -2.75123040	      1.07067636	    171.91254456	    -13.34128577	     67.53073004	     16.53695881	     63.94412493	     72.43097995	     10.78926549	    -38.02744737	     17.70825023	     77.04977715
      4.11864410	     -7.62053435	     -0.40187073	      2.72461830	      0.35609042	      0.95126460	     -0.04898759	      2.49412130	     -5.66247968	     -8.65000206	      1.16930779	      0.02040827	      3.17461005	     -3.73374357	     -7.49999987	      5.39378144	     -3.81339556	     -2.52838111	      1.68334849	      0.02937997	      3.35628072	     -0.00406122	     -7.49999987	      6.59680499	     -2.80031193	      1.21555562	    171.98444856	    -13.32753946	     67.56811975	     16.57464889	     63.95659161	     72.28629159	     10.61987412	    -38.01635184	     17.71832715	     77.09322517
      4.13559320	     -7.62504296	     -0.42006359	      2.65196627	      0.35190703	      0.95116932	     -0.05335464	      2.50991513	     -5.62021770	     -8.49145561	      1.16668062	      0.02036242	      3.33100146	     -3.55595817	     -7.49999987	      5.35554903	     -3.80318446	     -2.48873920	      1.57132888	      0.02742486	      3.44297853	      0.16392257	     -7.49999987	      6.49925055	     -2.69253099	      1.30482877	    172.29236519	    -13.40032832	     69.87134353	     16.53776526	     64.43850308	     72.17213410	     10.49148159	    -36.40899406	     17.86770117	     80.38733648
      4.15254240	     -7.61021622	     -0.41463546	      2.63740709	      0.35170089	      0.95122317	     -0.05337471	      2.48625015	     -5.60717064	     -8.29705948	      1.14107255	      0.01991547	      3.36914183	     -3.55605551	     -7.49999987	      5.36082021	     -3.78226153	     -2.40936845	      1.54655190	      0.02699242	      3.45879117	      0.18555630	     -7.49999987	      6.46275453	     -2.68676467	      1.22920358	    172.29169693	    -13.46957827	     71.19325557	     16.55377740	     62.13546868	     72.25469852	     10.89427478	    -39.71721429	     18.56739917	     86.19617787
      4.16949150	     -7.66543698	     -0.39160014	      2.60581185	      0.35195968	      0.95125612	     -0.05331830	      2.56536542	     -5.65000556	     -8.19364568	      1.16124229	      0.02026750	      3.39576170	     -3.55007768	     -7.49999987	      5.46389688	     -3.73126932	     -2.38342600	      1.54572344	      0.02697796	      3.50285798	      0.27664121	     -7.49999987	      6.50964139	     -2.65648960	      1.29233203	    172.29090142	    -13.49120043	     70.81671006	     16.60865097	     63.22034090	     72.28675766	     10.79275732	    -37.74565564	     18.30626867	     82.50336793
      4.18644070	     -7.67354929	     -0.38727433	      2.59778293	      0.35185036	      0.95413619	     -0.05328424	      2.58575709	     -5.67216844	     -8.19480554	      1.15938734	      0.02023513	      3.43726994	     -3.35014955	     -7.49999987	      5.53017770	     -3.70167403	     -2.30182423	      1.57196574	      0.02743598	      3.45911402	      0.21625975	     -7.49999987	      6.48938631	     -2.61522322	      1.19937251	    172.35238234	    -13.39969219	     71.54114067	     16.56663713	     61.79648930	     72.02948821	     10.93791557	    -39.67274647	     18.96568869	     86.47243094
